<svg height="512" viewBox="0 0 64 64" width="512" xmlns="http://www.w3.org/2000/svg">
	<g id="Order-Shopping-Shopping_Bag-Smartphone-Laptop" data-name="Order-Shopping-Shopping Bag-Smartphone-Laptop">
		<path d="m15 5h4v2h-4z" fill="#fcc774"/>
<path d="m21 1h-8a5 5 0 0 0 -5 5v8.08a7 7 0 0 0 -6 6.92v9.06a4.945 4.945 0 0 0 .53 2.23l1.15 2.31a3 3 0 0 1 .32 1.34v2.06h-1a1 1 0 0 0 -1 1v8a1 1 0 0 0 1 1h14a1 1 0 0 0 1-1v-8a1 1 0 0 0 -1-1h-.97a3.027 3.027 0 0 1 .57-1.47l1.4-1.86a5.075 5.075 0 0 0 1-3v-1.54l.29-1.13h1.71a5 5 0 0 0 5-5v-18a5 5 0 0 0 -5-5zm-5 45h-12v-6h12zm2.47-21.77-1.44 5.52a1.068 1.068 0 0 0 -.03.25v1.67a3.018 3.018 0 0 1 -.6 1.8l-1.4 1.86a5.069 5.069 0 0 0 -.99 2.67h-8.01v-2.06a4.945 4.945 0 0 0 -.53-2.23l-1.15-2.31a3 3 0 0 1 -.32-1.34v-9.06a5.009 5.009 0 0 1 4-4.9v5.9a1 1 0 0 0 .14.51l2.43 4.05a2.981 2.981 0 0 0 5.44-.77l.53-2.06a.949.949 0 0 1 .46-.61.966.966 0 0 1 .76-.11 1.01 1.01 0 0 1 .71 1.22zm5.53-.23a3.009 3.009 0 0 1 -3 3h-1.19l.59-2.27a3.01 3.01 0 0 0 -2.12-3.65 3 3 0 0 0 -3.68 2.15l-.53 2.06a.955.955 0 0 1 -.94.72h-.01a.953.953 0 0 1 -.83-.48l-2.29-3.81v-15.72a3.009 3.009 0 0 1 3-3h8a3.009 3.009 0 0 1 3 3z" fill="#fcc774"/>
<path d="m12 11h10v2h-10z" fill="#fcc774"/>
<path d="m12 15h10v2h-10z" fill="#fcc774"/>
<path d="m61.89 54.55-5.89-11.79v-2.76h-2v2h-34v2h34.38l5 10h-18.76l-1.73-3.45a.988.988 0 0 0 -.89-.55h-12a.988.988 0 0 0 -.89.55l-1.73 3.45h-18.76l1.77-3.55-1.78-.9-2.5 5a1 1 0 0 0 -.11.45v4a3.009 3.009 0 0 0 3 3h54a3.009 3.009 0 0 0 3-3v-4a1 1 0 0 0 -.11-.45zm-35.27-2.55h10.76l1 2h-12.76zm33.38 7a1 1 0 0 1 -1 1h-54a1 1 0 0 1 -1-1v-3h56z" fill="#fcc774"/>
<path d="m10 50h2v2h-2z" fill="#fcc774"/>
<path d="m14 50h2v2h-2z" fill="#fcc774"/>
<path d="m48 50h2v2h-2z" fill="#fcc774"/>
<path d="m52 50h2v2h-2z" fill="#fcc774"/>
<path d="m19 46h2v2h-2z" fill="#fcc774"/>
<path d="m23 46h2v2h-2z" fill="#fcc774"/>
<path d="m27 46h2v2h-2z" fill="#fcc774"/>
<path d="m31 46h2v2h-2z" fill="#fcc774"/>
<path d="m35 46h2v2h-2z" fill="#fcc774"/>
<path d="m39 46h2v2h-2z" fill="#fcc774"/>
<path d="m43 46h2v2h-2z" fill="#fcc774"/>
<path d="m47 46h2v2h-2z" fill="#fcc774"/>
<path d="m51 46h2v2h-2z" fill="#fcc774"/>
<path d="m28 8h4v2h-4z" fill="#fcc774"/>
<path d="m53 10a1 1 0 0 1 1 1v6h2v-6a3 3 0 0 0 -3-3h-6v2z" fill="#fcc774"/>
<path d="m18 50h4v2h-4z" fill="#fcc774"/>
<path d="m42 50h4v2h-4z" fill="#fcc774"/>
<path d="m34 21v-3h15v-2h-3v-1a7 7 0 0 0 -14 0v1h-3a1 1 0 0 0 -1 1v18a3.009 3.009 0 0 0 3 3h12v-2h-12a1 1 0 0 1 -1-1v-1h12v-2h-12v-14h2v3zm0-6a5 5 0 0 1 10 0v1h-10z" fill="#fcc774"/>
<path d="m61 19h-16a1 1 0 0 0 -1 1v15a3.009 3.009 0 0 0 3 3h12a3.009 3.009 0 0 0 3-3v-15a1 1 0 0 0 -1-1zm-1 16a1 1 0 0 1 -1 1h-12a1 1 0 0 1 -1-1v-1h14zm0-3h-14v-11h14z" fill="#fcc774"/>
<path d="m53 30a5.006 5.006 0 0 0 5-5v-2h-2v2a3 3 0 0 1 -6 0v-2h-2v2a5.006 5.006 0 0 0 5 5z" fill="#fcc774"/>
</g></svg>