<svg id="Layer_1" enable-background="new 0 0 512 512" height="512" viewBox="0 0 512 512" width="512" xmlns="http://www.w3.org/2000/svg"><g>
	<path d="m120.375 391.625v-346.5c0-8.284-6.716-15-15-15h-60.25c-8.284 0-15 6.716-15 15v346.5z" fill="#012048"/>
	<path d="m361.375 391.625v-286.25c0-8.284-6.716-15-15-15h-60.25c-8.284 0-15 6.716-15 15v286.25z" fill="#012048"/>
	<path d="m240.875 391.625v-226c0-8.284-6.716-15-15-15h-60.25c-8.284 0-15 6.716-15 15v226z" fill="#012048"/>
	<path d="m481.875 391.625v-165.75c0-8.284-6.716-15-15-15h-60.25c-8.284 0-15 6.716-15 15v165.75z" fill="#012048"/>
	<path d="m0 421.625v45.25c0 8.284 6.716 15 15 15h482c8.284 0 15-6.716 15-15v-45.25z" fill="#1dbeee"/></g></svg>