<svg id="Line_expand" height="512" viewBox="0 0 512 512" width="512" xmlns="http://www.w3.org/2000/svg" data-name="Line expand"><g><path d="m48 344h224v88h16v-88h8a8 8 0 0 0 8-8v-32a8 8 0 0 0 -8-8h-64v-90.14a28.13 28.13 0 0 0 -18.169-26.217l-38.3-14.364-.1-.25c-.028-.069-.057-.137-.086-.206l-.021-.048c-.028-.062-.056-.124-.085-.186l-.013-.028-.066-.134-10.225-20.45 5.476-3.286a28.141 28.141 0 0 0 13.589-24.015v-44.676a8 8 0 0 0 8-8v-8.384a27.959 27.959 0 0 0 -21.209-27.164l-16.851-4.213a7.951 7.951 0 0 0 -2.352-.228 27.907 27.907 0 0 0 -19.588-8.011h-52a8 8 0 0 0 -8 8v20a28.035 28.035 0 0 0 16 25.3v47.38a28.141 28.141 0 0 0 13.594 24.01l5.476 3.286-10.225 20.45-.066.134-.013.028c-.029.062-.057.124-.085.186l-.021.048c-.029.069-.058.137-.086.206l-.1.25-38.3 14.364a28.131 28.131 0 0 0 -18.174 26.218v50.14h16v-50.14a12.056 12.056 0 0 1 7.786-11.236l24.645-9.242-7.859 19.647a8 8 0 0 0 8.743 10.862l46.685-7.781 46.685 7.781a8 8 0 0 0 8.743-10.862l-7.859-19.647 24.645 9.242a12.056 12.056 0 0 1 7.786 11.236v90.14h-16v-2a38.043 38.043 0 0 0 -38-38h-74v16h40v24h-72v-24h-16v24h-16a8 8 0 0 0 -8 8v32a8 8 0 0 0 8 8h8v144a8 8 0 0 0 8 8h192v-16h-184zm112-301.753 6.91 1.727a11.982 11.982 0 0 1 9.09 11.642v.384h-16zm-60 13.753a12.013 12.013 0 0 1 -12-12v-12h44a12.013 12.013 0 0 1 12 12v12zm4 60.676v-44.676h64v44.676a12.059 12.059 0 0 1 -5.826 10.29l-20 12a11.98 11.98 0 0 1 -12.348 0l-20-12a12.059 12.059 0 0 1 -5.826-10.29zm-3.292 81.095 6.214-15.535 12.429 12.429zm13.026-31.351 7.1-14.192.764.458a27.948 27.948 0 0 0 28.812 0l.764-.458 7.1 14.192-22.274 22.266zm38.915 28.245 12.429-12.429 6.214 15.535zm-8.649 77.335h18a22.025 22.025 0 0 1 22 22v2h-40zm-112 56v-16h256v16z" fill="#deb0fe"/>
<path d="m248 376a8 8 0 0 0 -8-8h-160a8 8 0 0 0 -8 8v48a8 8 0 0 0 8 8h160a8 8 0 0 0 8-8zm-16 40h-144v-32h144z" fill="#deb0fe"/>
<path d="m488 376h-18.7a27.836 27.836 0 0 0 2.7-12v-116h-16v80h-64v-24h32a8 8 0 0 0 8-8v-64h-16v56h-40v-44.445a51.762 51.762 0 0 1 3.719-19.312l9.7-24.243h54.581a12.013 12.013 0 0 1 12 12v20h16v-20a28.05 28.05 0 0 0 -19.394-26.647 27.824 27.824 0 0 0 3.394-13.353v-86a38.043 38.043 0 0 0 -38-38h-66a8 8 0 0 0 -8 8v28a28.035 28.035 0 0 0 16 25.3v16.815l-10.813 21.627a14 14 0 0 0 12.521 20.258h6.292v4a27.9 27.9 0 0 0 7.684 19.249l-10.821 27.051a67.707 67.707 0 0 0 -4.863 25.255v44.445h-2a38.043 38.043 0 0 0 -38 38v10a8 8 0 0 0 5.209 7.5 47.736 47.736 0 0 0 -11.724 22.613l-17.239 81.887h-8.246a40.045 40.045 0 0 0 -40 40 8 8 0 0 0 8 8h80a8 8 0 0 0 7.761-6.06l8-32c.009-.037.017-.075.026-.112l1.705.525 8.108-26.353h46.4v32h-20a28.032 28.032 0 0 0 -28 28v4h16v-4a12.013 12.013 0 0 1 12-12h56a12.013 12.013 0 0 1 12 12v4h16v-4a28.032 28.032 0 0 0 -28-28h-20v-32h34a38.043 38.043 0 0 0 38-38v-10a8 8 0 0 0 -8-8zm-128-292v-20h58a22.025 22.025 0 0 1 22 22v10h-68a12.013 12.013 0 0 1 -12-12zm4.944 68 10.211-20.422a7.994 7.994 0 0 0 .845-3.578v-16h64v60a12.013 12.013 0 0 1 -12 12h-32a12.013 12.013 0 0 1 -12-12v-12a8 8 0 0 0 -8-8zm-28.944 174a22.025 22.025 0 0 1 22-22h18v24h-40zm-6.246 154h-64.383a24.042 24.042 0 0 1 22.629-16h45.754zm30.6-98.353-20.417 66.353h-27.337l16.546-78.592a32.146 32.146 0 0 1 31.31-25.408h95.544v20a12.013 12.013 0 0 1 -12 12h-76a8 8 0 0 0 -7.646 5.647zm119.646 12.353a22.025 22.025 0 0 1 -22 22h-91.476l7.384-24h106.092z" fill="#deb0fe"/><path d="m184.845 147.578a8 8 0 0 0 7.155 4.422h108a28.032 28.032 0 0 0 28-28v-56a28.032 28.032 0 0 0 -28-28h-64a28.032 28.032 0 0 0 -28 28v41.333l-22.4 29.867a8 8 0 0 0 -.755 8.378zm37.555-30.778a8 8 0 0 0 1.6-4.8v-44a12.013 12.013 0 0 1 12-12h64a12.013 12.013 0 0 1 12 12v56a12.013 12.013 0 0 1 -12 12h-92z" fill="#deb0fe"/><path d="m240 72h56v16h-56z" fill="#deb0fe"/><path d="m240 104h56v16h-56z" fill="#deb0fe"/></g></svg>