<svg xmlns="http://www.w3.org/2000/svg" viewBox="0 0 64 64" width="512" height="512"><g id="Design_webpage-2" data-name="Design webpage"><rect x="14" y="5" width="2" height="2" fill="#fe929f"/><rect x="18" y="5" width="2" height="2"/><rect x="22" y="5" width="2" height="2"/><path d="M57,6H54V5a3,3,0,0,0-3-3H13a3,3,0,0,0-3,3V6H7a5.006,5.006,0,0,0-5,5V43a5.006,5.006,0,0,0,5,5H24v6H14a4,4,0,0,0,0,8H50a4,4,0,0,0,0-8H40V48H57a5.006,5.006,0,0,0,5-5V11A5.006,5.006,0,0,0,57,6ZM48,20H45a1,1,0,0,0,0,2h3v2H45a1,1,0,0,0,0,2h3v2H45a1,1,0,0,0,0,2h3v2H45a1,1,0,0,0,0,2h3v2H45a1,1,0,0,0,0,2h3v2H40V18h8Zm2-3a1,1,0,0,0-1-1H39a1,1,0,0,0-1,1V40H36V21a.992.992,0,0,0-.1-.412c0-.011,0-.024-.008-.035l-3-6a1.042,1.042,0,0,0-1.79,0l-3,6c0,.011,0,.024-.008.035A.992.992,0,0,0,28,21V40H23.1l.84-9.243A1.993,1.993,0,0,0,25,29V28a2,2,0,0,0-1.176-1.818A4.951,4.951,0,0,0,25,23c0-2.31-1.844-7.717-2.055-8.327a1,1,0,0,0-1.639-.393C19.826,15.708,15,20.556,15,23a4.951,4.951,0,0,0,1.176,3.182A2,2,0,0,0,15,28v1a1.993,1.993,0,0,0,1.065,1.757L16.905,40H12V10H52V40H50ZM30,40V23.414l1,1V40Zm2-17.414L30.217,20.8,32,17.236,33.783,20.8Zm1,1.828,1-1V40H33ZM17,23c0-.919,2.19-3.694,4.557-6.143A29.441,29.441,0,0,1,23,23a3,3,0,0,1-6,0Zm0,5h6v1H17ZM18.1,31h3.81l-.818,9H18.913ZM10,40H8V12h2ZM54,12h2V40H54ZM12,5a1,1,0,0,1,1-1H51a1,1,0,0,1,1,1V8H12ZM52,58a2,2,0,0,1-2,2H14a2,2,0,0,1,0-4H50A2,2,0,0,1,52,58ZM38,54H26V48H38ZM60,43a3,3,0,0,1-3,3H7a3,3,0,0,1-3-3V11A3,3,0,0,1,7,8h3v2H7a1,1,0,0,0-1,1V41a1,1,0,0,0,1,1H57a1,1,0,0,0,1-1V11a1,1,0,0,0-1-1H54V8h3a3,3,0,0,1,3,3Z" fill="#fe929f"/></g></svg>
